<?xml version="1.0" encoding="UTF-8"?>
<svg width="88px" height="88px" viewBox="0 0 88 88" version="1.1" xmlns="http://www.w3.org/2000/svg" xmlns:xlink="http://www.w3.org/1999/xlink">
    <!-- Generator: Sketch 61 (89581) - https://sketch.com -->
    <title>Illustration/Status/Claim/neutral</title>
    <desc>Created with Sketch.</desc>
    <defs>
        <polygon id="path-1" points="0 0.0673 3.8897 0.0673 3.8897 3.9563 0 3.9563"></polygon>
    </defs>
    <g id="Illustration/Status/Claim/neutral" stroke="none" stroke-width="1" fill="none" fill-rule="evenodd">
        <g id="fill" transform="translate(6.000000, 14.000000)">
            <path d="M61.6787,37.2269 C61.6787,38.1679 61.2977,39.0209 60.6807,39.6379 C60.0637,40.2549 59.2107,40.6359 58.2697,40.6359 L58.2697,40.6359 L48.2277,40.6359 C46.9797,40.6359 45.8497,41.1419 45.0327,41.9599 C44.2147,42.7769 43.7087,43.9069 43.7087,45.1539 L43.7087,45.1539 L43.7087,55.1969 C43.7087,56.1389 43.3277,56.9909 42.7097,57.6069 C42.0927,58.2249 41.2417,58.6069 40.2987,58.6069 L40.2987,58.6069 L19.8857,58.6069 C18.8177,58.6069 17.8497,58.1529 17.1497,57.4199 C16.4497,56.6869 16.0157,55.6739 16.0157,54.5549 L16.0157,54.5549 L16.0158,4.1956 C16.0158,3.1266 16.4698,2.1596 17.2018,1.4586 C17.9358,0.7586 18.9488,0.3266 20.0678,0.3266 L20.0678,0.3266 L57.8098,0.3266 C58.8778,0.3266 59.8458,0.7796 60.5458,1.5126 C61.2458,2.2456 61.6788,3.2586 61.6788,4.3766 L61.6788,4.3766 Z" id="Combined-Shape" fill="#FFFFFF"></path>
            <path d="M56.701,10.7324 C56.701,13.493594 54.4626223,15.7324 51.7019566,15.7324 C48.9393777,15.7324 46.701,13.493594 46.701,10.7324 C46.701,7.97120597 48.9393777,5.7324 51.7019566,5.7324 C54.4626223,5.7324 56.701,7.97120597 56.701,10.7324" id="Fill-5" fill="#F1644A"></path>
            <rect id="Rectangle" fill="#BA432D" x="22" y="8" width="15" height="3" rx="1.5"></rect>
            <rect id="Rectangle-Copy" fill="#F1644A" x="22" y="13" width="20" height="3" rx="1.5"></rect>
            <rect id="Rectangle-Copy-2" fill="#F6F6F6" x="22" y="21" width="26" height="3" rx="1.5"></rect>
            <rect id="Rectangle-Copy-3" fill="#F6F6F6" x="22" y="26" width="34" height="3" rx="1.5"></rect>
            <rect id="Rectangle-Copy-3" fill="#F6F6F6" x="22" y="31" width="34" height="3" rx="1.5"></rect>
            <rect id="Rectangle-Copy-3" fill="#D8D8D8" x="22" y="41" width="15" height="3" rx="1.5"></rect>
            <g id="Group-11" transform="translate(0.000000, 10.447600)">
                <mask id="mask-2" fill="white">
                    <use xlink:href="#path-1"></use>
                </mask>
                <g id="Clip-10"></g>
            </g>
            <path d="M42.71,57.6074 C43.327,56.9914 43.709,56.1384 43.709,55.1974 L43.709,50.1754 L43.709,45.1544 C43.709,43.9074 44.215,42.7774 45.032,41.9604 C45.85,41.1414 46.98,40.6354 48.228,40.6354 L53.249,40.6354 L58.27,40.6354 C59.211,40.6354 60.064,40.2544 60.681,39.6374 L42.71,57.6074 Z" id="Fill-34" fill="#F1644A"></path>
        </g>
        <g id="outlines" transform="translate(22.015700, 14.326600)" stroke-linecap="round">
            <path d="M45.6631,8.148 L45.6631,4.05 C45.6631,2.932 45.2301,1.919 44.5301,1.186 C43.8301,0.453 42.8621,-1.42108547e-14 41.7941,-1.42108547e-14 L4.0521,-1.42108547e-14 C2.9331,-1.42108547e-14 1.9201,0.432 1.1861,1.132 C0.4541,1.833 0.0001,2.8 0.0001,3.869 L0.0001,52.1343" id="Stroke-51" stroke="#1D1D1B"></path>
            <path d="M3.55271368e-15,52.1343 L3.55271368e-15,54.2283 C3.55271368e-15,55.3473 0.434,56.3603 1.134,57.0933 C1.834,57.8263 2.802,58.2803 3.87,58.2803 L14.077,58.2803 L24.283,58.2803 C25.226,58.2803 26.077,57.8983 26.694,57.2803 C27.312,56.6643 27.693,55.8123 27.693,54.8703 L27.693,49.8493 L27.693,44.8273 C27.693,43.5803 28.199,42.4503 29.017,41.6333 C29.834,40.8153 30.964,40.3093 32.212,40.3093 L37.233,40.3093 L42.254,40.3093 C43.195,40.3093 44.048,39.9283 44.665,39.3113 C45.282,38.6943 45.663,37.8413 45.663,36.9003 L45.663,20.4753 L45.663,16.6703" id="Stroke-53" stroke="#1D1D1B"></path>
            <line x1="44.665" y1="39.3023" x2="26.694" y2="57.2723" id="Stroke-59" stroke="#1D1D1B"></line>
            <path d="M41.0234,10.4058 C41.0234,13.3538 38.6334,15.7438 35.6854,15.7438 C32.7374,15.7438 30.3474,13.3538 30.3474,10.4058 C30.3474,7.4578 32.7374,5.0678 35.6854,5.0678 C38.6334,5.0678 41.0234,7.4578 41.0234,10.4058 Z" id="Stroke-63" stroke="#1D1D1B"></path>
            <path d="M49.1758,7.4907 C48.5868,7.1147 47.8338,7.1147 47.2448,7.4907 L46.6558,7.8667 C46.0678,8.2427 45.3138,8.2427 44.7248,7.8667 L44.1368,7.4907 C43.5478,7.1147 42.7938,7.1147 42.2048,7.4907 L41.6168,7.8667 C41.2838,8.0797 40.8988,8.1717 40.5208,8.1437" id="Stroke-67" stroke="#1D1D1B"></path>
            <path d="M49.1758,10.2183 C48.5868,9.8423 47.8338,9.8423 47.2448,10.2183 L46.6558,10.5943 C46.0678,10.9703 45.3138,10.9703 44.7248,10.5943 L44.1368,10.2183 C43.5478,9.8423 42.7938,9.8423 42.2048,10.2183 L41.6168,10.5943 C41.4238,10.7173 41.2128,10.8003 40.9958,10.8423" id="Stroke-69" stroke="#1D1D1B"></path>
            <path d="M49.1758,12.9458 C48.5868,12.5688 47.8338,12.5688 47.2448,12.9458 L46.6558,13.3208 C46.0678,13.6968 45.3138,13.6968 44.7248,13.3208 L44.1368,12.9458 C43.5478,12.5688 42.7938,12.5688 42.2048,12.9458 L41.6168,13.3208 C41.1408,13.6258 40.5568,13.6828 40.0388,13.4958" id="Stroke-71" stroke="#1D1D1B"></path>
            <line x1="7.9629" y1="66.6206" x2="26.6269" y2="66.6206" id="Stroke-55" stroke="#20252B" stroke-linejoin="round"></line>
            <line x1="32.125" y1="66.6206" x2="36.094" y2="66.6206" id="Stroke-57" stroke="#20252B" stroke-linejoin="round"></line>
            <path d="M38.2988,10.4058 C38.2988,11.8488 37.1288,13.0188 35.6858,13.0188 C34.2418,13.0188 33.0718,11.8488 33.0718,10.4058 C33.0718,8.9628 34.2418,7.7928 35.6858,7.7928 C37.1288,7.7928 38.2988,8.9628 38.2988,10.4058 Z" id="Stroke-65" stroke="#1D1D1B"></path>
        </g>
        <g id="sparks" transform="translate(0.000000, 0.000000)" fill-rule="nonzero">
            <circle id="Oval" fill="#BD452E" cx="14" cy="72" r="2"></circle>
            <circle id="Oval" fill="#BD452E" cx="37.9021191" cy="8.71" r="1"></circle>
            <circle id="Oval" fill="#FF9682" cx="85" cy="3" r="3"></circle>
            <circle id="Oval" fill="#BD452E" cx="1" cy="12.717494" r="1"></circle>
            <circle id="Oval" fill="#FF9682" cx="86.0021191" cy="59" r="2"></circle>
            <circle id="Oval" fill="#BD452E" cx="1" cy="87" r="1"></circle>
            <circle id="Oval" fill="#FF9682" cx="65" cy="67" r="3"></circle>
        </g>
    </g>
</svg>