<?xml version="1.0" encoding="UTF-8"?>
<svg width="88px" height="88px" viewBox="0 0 88 88" version="1.1" xmlns="http://www.w3.org/2000/svg" xmlns:xlink="http://www.w3.org/1999/xlink">
    <!-- Generator: Sketch 61 (89581) - https://sketch.com -->
    <title>Illustration/Status/Payment/Neutral</title>
    <desc>Created with Sketch.</desc>
    <g id="Illustration/Status/Payment/Neutral" stroke="none" stroke-width="1" fill="none" fill-rule="evenodd">
        <g id="Red">
            <g id="Colors" transform="translate(20.119451, 24.632890)">
                <path d="M0.921248916,27.1673096 L21.6042489,49.1873096 C23.4152489,51.1143096 26.4462489,51.2093096 28.3752489,49.3983096 L53.6412489,25.6663096 C55.5702489,23.8543096 55.6652489,20.8183096 53.8532489,18.8893096 L38.7822489,2.84530958 C36.9702489,0.915309575 33.9352489,0.819309575 32.0052489,2.63330958 L31.3032489,3.29230958 L0.921248916,27.1673096 Z" id="Fill-1" fill="#D8D8D8"></path>
                <path d="M31.2777489,3.18590958 L0.921748916,27.1669096 L16.4157489,43.6629096 C18.5307489,45.9149096 22.0717489,46.0259096 24.3247489,43.9099096 L44.8457489,24.6329096 C46.7757489,22.8209096 46.8707489,19.7869096 45.0577489,17.8569096 L31.2777489,3.18590958 Z" id="Fill-3" fill="#EBEBEB"></path>
                <path d="M38.3861489,14.2318096 L44.2801489,8.69680958 L49.7061489,14.4738096 L43.8131489,20.0088096 C42.2181489,21.5078096 39.7091489,21.4288096 38.2111489,19.8348096 C36.7121489,18.2388096 36.7911489,15.7308096 38.3861489,14.2318096" id="Fill-7" fill="#F1644A"></path>
                <polygon id="Fill-9" fill="#D0563F" points="41.7943489 11.0306096 44.2793489 8.69660958 49.7063489 14.4736096 47.2213489 16.8076096"></polygon>
                <path d="M1.59214892,27.7200096 C1.35114892,27.5690096 1.12514892,27.3840096 0.921148916,27.1670096 C-0.362851084,25.7990096 -0.296851084,23.6490096 1.07114892,22.3640096 L23.6351489,1.17000958 C25.3711489,-0.461990425 28.1021489,-0.375990425 29.7341489,1.36100958 L31.4331489,3.17000958 L5.72514892,27.3180096 C4.57414892,28.3990096 2.86914892,28.5230096 1.59214892,27.7200096" id="Fill-11" fill="#B0B2B3"></path>
                <polygon id="Fill-13" fill="#FFFFFF" points="19.9816489 1.16350958 29.3886489 5.09050958 10.7890876 22.5692008"></polygon>
                <path d="M14.9017489,18.6986096 L20.2967489,5.77260958 C21.3497489,6.21360958 22.5597489,5.71560958 22.9997489,4.66260958 L27.7387489,6.64060958" id="Fill-15" fill="#F1644A"></path>
                <path d="M42.4046489,15.9144096 C43.0826489,16.6364096 43.0466489,17.7704096 42.3256489,18.4484096 C41.6036489,19.1264096 40.4686489,19.0914096 39.7916489,18.3694096 C39.1136489,17.6474096 39.1486489,16.5134096 39.8706489,15.8354096 C40.5926489,15.1574096 41.7266489,15.1934096 42.4046489,15.9144096" id="Fill-71" fill="#FFFFFF"></path>
            </g>
            <g id="Borders" transform="translate(20.252910, 24.632980)" stroke-linecap="round">
                <line x1="8.87858969" y1="58.0842198" x2="27.5415897" y2="58.0842198" id="Stroke-49" stroke="#20252B" stroke-linejoin="round"></line>
                <line x1="33.0407897" y1="58.0842198" x2="37.0087897" y2="58.0842198" id="Stroke-51" stroke="#20252B" stroke-linejoin="round"></line>
                <path d="M1.24708969,21.8670198 C0.316284512,22.6209938 -0.0934685589,23.6195193 0.0178304741,24.8625964 C0.129129507,26.1056735 0.538882578,27.0484022 1.24708969,27.6907825 L21.4700897,49.1866198 C23.2820897,51.1146198 26.3130897,51.2096198 28.2420897,49.3986198 L53.5070897,25.6666198 C55.4370897,23.8536198 55.5320897,20.8186198 53.7190897,18.8886198 L38.6490897,2.84461981 C36.8370897,0.915619814 33.8010897,0.819619814 31.8720897,2.63261981 L31.1700897,3.29261981" id="Stroke-53" stroke="#1D1D1B" stroke-linejoin="round"></path>
                <path d="M23.5016897,1.17011981 C25.2376897,-0.461880186 27.9686897,-0.375880186 29.6006897,1.36011981 L31.2996897,3.17011981 L13.9166897,19.4981198" id="Stroke-59" stroke="#1D1D1B" stroke-linejoin="round"></path>
                <line x1="1.24708969" y1="21.8670198" x2="14.1605897" y2="9.99291981" id="Stroke-61" stroke="#1D1D1B" stroke-linejoin="round"></line>
                <polyline id="Stroke-67" stroke="#1D1D1B" stroke-linejoin="round" points="11.4204062 20.8354045 19.8481897 1.16341981 29.2551897 5.09041981"></polyline>
                <path d="M14.7682897,18.6985198 L20.1632897,5.77251981 C21.2162897,6.21351981 22.4262897,5.71551981 22.8662897,4.66251981 L27.6052897,6.64051981" id="Stroke-69" stroke="#1D1D1B" stroke-linejoin="round"></path>
                <line x1="50.9410897" y1="32.1926198" x2="48.0870897" y2="34.8736198" id="Stroke-55" stroke="#1D1D1B" stroke-linejoin="round"></line>
                <path d="M55.9059897,16.8352198 C58.8479897,19.9692198 58.6929897,24.9112198 55.5609897,27.8532198 L54.3179897,29.0212198" id="Stroke-57" stroke="#1D1D1B" stroke-linejoin="round"></path>
                <path d="M38.2526897,14.2317198 L44.1466897,8.69671981 L49.5726897,14.4737198 L43.6796897,20.0087198 C42.0846897,21.5077198 39.5756897,21.4287198 38.0776897,19.8347198 C36.5786897,18.2387198 36.6576897,15.7307198 38.2526897,14.2317198 Z" id="Stroke-63" stroke="#1D1D1B"></path>
                <path d="M42.2711897,15.9143198 C42.9491897,16.6363198 42.9131897,17.7703198 42.1921897,18.4483198 C41.4701897,19.1263198 40.3351897,19.0913198 39.6581897,18.3693198 C38.9801897,17.6473198 39.0151897,16.5133198 39.7371897,15.8353198 C40.4591897,15.1573198 41.5931897,15.1933198 42.2711897,15.9143198 Z" id="Stroke-73" stroke="#1D1D1B"></path>
            </g>
            <g id="Sparks">
                <path d="M38.7468,12.6859864 C38.7468,11.5813323 37.8511702,10.6865007 36.7468,10.6865007 C35.6414015,10.6865007 34.7468,11.5813323 34.7468,12.6859864 C34.7468,13.7906406 35.6414015,14.6865007 36.7468,14.6865007 C37.8511702,14.6865007 38.7468,13.7906406 38.7468,12.6859864" id="Fill-24" fill="#F1644A"></path>
                <path d="M4,1.99900448 C4,0.893977103 3.1060229,-7.10542736e-15 2.00099552,-7.10542736e-15 C0.895968143,-7.10542736e-15 0,0.893977103 0,1.99900448 C0,3.10403186 0.895968143,4 2.00099552,4 C3.1060229,4 4,3.10403186 4,1.99900448" id="Fill-26" fill="#F1644A"></path>
                <path d="M81.3024,86.9996641 C81.3024,86.4474303 80.8549697,86 80.3027359,86 C79.7505021,86 79.3024,86.4474303 79.3024,86.9996641 C79.3024,87.5512261 79.7505021,87.9993282 80.3027359,87.9993282 C80.8549697,87.9993282 81.3024,87.5512261 81.3024,86.9996641" id="Fill-28" fill="#C42F2D"></path>
                <path d="M12.6088,23.5720007 C12.6088,23.0200473 12.1615847,22.5720007 11.6088,22.5720007 C11.0568466,22.5720007 10.6088,23.0200473 10.6088,23.5720007 C10.6088,24.1247854 11.0568466,24.572832 11.6088,24.572832 C12.1615847,24.572832 12.6088,24.1247854 12.6088,23.5720007" id="Fill-31" fill="#D0563F"></path>
                <path d="M63.9554,14.8101062 C63.9554,14.2578869 63.5076193,13.8088007 62.9554,13.8088007 C62.4044862,13.8088007 61.9554,14.2578869 61.9554,14.8101062 C61.9554,15.3623255 62.4044862,15.8101062 62.9554,15.8101062 C63.5076193,15.8101062 63.9554,15.3623255 63.9554,14.8101062" id="Fill-33" fill="#D0563F"></path>
                <path d="M61.6751,72.1184007 C61.6751,71.5661814 61.2273193,71.1184007 60.6751,71.1184007 C60.1228807,71.1184007 59.6751,71.5661814 59.6751,72.1184007 C59.6751,72.6719255 60.1228807,73.1197062 60.6751,73.1197062 C61.2273193,73.1197062 61.6751,72.6719255 61.6751,72.1184007" id="Fill-35" fill="#D0563F"></path>
                <path d="M85.9458062,29.5646841 C86.2576023,27.9379621 85.1922989,26.3669179 83.5655768,26.0541938 C81.9388548,25.7423977 80.3668826,26.8077011 80.0541585,28.4344232 C79.7423624,30.0611452 80.8085938,31.6331174 82.4353159,31.9449135 C84.0620379,32.2567096 85.6340101,31.1914062 85.9458062,29.5646841" id="Fill-41" fill="#FF9682"></path>
                <path d="M27.9458062,69.0156717 C28.2576023,67.3886128 27.1922989,65.8172433 25.5655768,65.5053826 C23.9388548,65.1925937 22.3659547,66.2581178 22.0541585,67.8851767 C21.7423624,69.5122356 22.8085938,71.0845332 24.4353159,71.3963939 C26.0620379,71.7091827 27.6330821,70.6436587 27.9458062,69.0156717" id="Fill-44" fill="#FF9682"></path>
                <path d="M4,77.3306007 C4,76.2258587 3.10497525,75.3306007 2.00052097,75.3306007 C0.896066684,75.3306007 0,76.2258587 0,77.3306007 C0,78.4353428 0.896066684,79.3306007 2.00052097,79.3306007 C3.10497525,79.3306007 4,78.4353428 4,77.3306007" id="Fill-21" fill="#F1644A"></path>
            </g>
        </g>
    </g>
</svg>