<?xml version="1.0" encoding="UTF-8"?>
<svg width="88px" height="88px" viewBox="0 0 88 88" version="1.1" xmlns="http://www.w3.org/2000/svg" xmlns:xlink="http://www.w3.org/1999/xlink">
    <!-- Generator: Sketch 61 (89581) - https://sketch.com -->
    <title>Illustration/Status/Location</title>
    <desc>Created with Sketch.</desc>
    <g id="Illustration/Status/Location" stroke="none" stroke-width="1" fill="none" fill-rule="evenodd">
        <g id="Red">
            <g id="background" transform="translate(14.180000, 22.429996)" fill-rule="nonzero">
                <circle id="Oval" fill="#D8D8D8" cx="29.95" cy="29.9600038" r="29.95"></circle>
                <path d="M29.95,1.42108547e-14 C25.771321,-0.00209860925 21.6387861,0.873467321 17.82,2.57000378 C13.4783452,13.8709454 16.3545927,26.6739766 25.1127072,35.0320075 C33.8708217,43.3900383 46.794259,45.6649391 57.88,40.8000038 C61.4366078,31.5829891 60.2273318,21.2057853 54.6466518,13.0535568 C49.0659719,4.9013283 39.8293951,0.0192841287 29.95,1.42108547e-14 Z" id="Path" fill="#EBEBEB"></path>
            </g>
            <g id="fill" transform="translate(12.058453, 0.500000)" fill-rule="nonzero">
                <path d="M9.16154685,56.9998566 L2.56154685,56.9998566 C4.15001633,66.0755707 9.8206814,73.9179014 17.9415468,78.27 L17.9415468,65.73 C17.9415468,63.4059709 17.0149594,61.1778502 15.3669368,59.5392127 C13.7189142,57.9005752 11.4855378,56.9866894 9.16154685,56.9998566 L9.16154685,56.9998566 Z" id="Path" fill="#FFFFFF"></path>
                <path d="M62.0115468,50.88 C62.0115468,50.69 62.0115468,50.51 62.0115468,50.32 C62.0115468,50.13 62.0115468,50.16 62.0115468,50.08 C62.0115468,50 62.0115468,49.72 62.0115468,49.54 C62.0115468,49.36 62.0115468,49.39 62.0115468,49.31 C62.0115468,49.23 62.0115468,48.95 62.0115468,48.77 L62.0115468,48.56 C62.0115468,48.37 62.0115468,48.19 61.9415468,48 L61.9415468,47.82 C61.9415468,47.63 61.8915468,47.43 61.8615468,47.24 L61.8615468,47.08 C61.8615468,46.88 61.7915468,46.68 61.7615468,46.48 L61.7615468,46.35 C61.7615468,46.14 61.6815468,45.93 61.6415468,45.73 L61.6415468,45.62 C61.6415468,45.41 61.5515468,45.19 61.5015468,44.98 L61.5015468,44.89 C61.4482135,44.67 61.3948802,44.45 61.3415468,44.23 L61.3415468,44.17 C61.2815468,43.9433333 61.2182135,43.72 61.1515468,43.5 L61.1515468,43.5 C61.0848802,43.2733333 61.0148802,43.0466667 60.9415468,42.82 L60.9415468,42.82 L60.7115468,42.13 L60.7115468,42.13 L60.4615468,41.44 L60.4615468,41.44 C60.2882135,40.9733333 60.1015468,40.51 59.9015468,40.05 C56.7667145,32.8968661 50.9709894,27.2445995 43.7415468,24.29 L43.5315468,24.29 L43.5315468,26.14 C43.5315468,28.4375046 41.6690514,30.3 39.3715468,30.3 L38.4815468,30.3 C36.8246926,30.3 35.4815468,31.6431458 35.4815468,33.3 C35.4815468,34.9568542 36.8246926,36.3 38.4815468,36.3 L50.7915468,36.3 C51.7417862,36.3705819 52.4767322,37.1621429 52.4767322,38.115 C52.4767322,39.0678571 51.7417862,39.8594181 50.7915468,39.93 L37.4115468,39.93 C32.3305271,39.93 28.2115468,44.0489803 28.2115468,49.13 L28.2115468,49.13 C28.2115468,51.5699917 29.1808298,53.9100477 30.9061645,55.6353824 C32.6314991,57.3607171 34.9715551,58.33 37.4115468,58.33 L41.7615468,58.33 C44.3020567,58.33 46.3615468,60.3894902 46.3615468,62.93 L46.3615468,66.64 C46.3653194,70.164019 48.7911275,73.2231867 52.2215468,74.03 L52.2215468,74.03 L52.7615468,73.53 L52.8915468,73.4 L53.2915468,73.01 L53.4615468,72.83 L53.8015468,72.48 L53.9915468,72.28 L54.3115468,71.94 L54.5015468,71.72 L54.8015468,71.38 L55.0015468,71.15 L55.2815468,70.81 L55.4715468,70.57 L55.7415468,70.23 L55.9315468,69.98 L56.1915468,69.63 L56.3715468,69.38 L56.6215468,69.03 L56.8015468,68.77 L57.0415468,68.41 L57.2115468,68.15 L57.4515468,67.78 L57.6115468,67.52 L57.8415468,67.14 L57.9915468,66.88 L58.2215468,66.48 L58.3615468,66.23 L58.5915468,65.79 L58.7115468,65.57 L58.9715468,65.05 L59.0515468,64.89 L59.3715468,64.2 L59.3715468,64.2 L59.6715468,63.52 L59.7515468,63.31 L59.9515468,62.82 L60.0515468,62.56 L60.2215468,62.12 L60.3215468,61.83 L60.4715468,61.41 L60.5715468,61.1 L60.7015468,60.68 L60.7915468,60.36 L60.9115468,59.95 L61.0015468,59.62 L61.1115468,59.21 L61.1915468,58.88 L61.2915468,58.47 L61.3615468,58.13 L61.4415468,57.71 L61.5115468,57.37 L61.5815468,56.95 L61.6415468,56.61 L61.7015468,56.18 L61.7015468,55.84 C61.7015468,55.69 61.7015468,55.55 61.7515468,55.4 L61.7515468,55.06 C61.7515468,54.91 61.7515468,54.76 61.7515468,54.61 C61.7515468,54.46 61.7515468,54.39 61.7515468,54.28 C61.7515468,54.17 61.7515468,53.96 61.7515468,53.81 C61.7515468,53.66 61.7515468,53.6 61.7515468,53.5 C61.7515468,53.4 61.7515468,53.15 61.7515468,52.97 C61.7515468,52.79 61.7515468,52.8 61.7515468,52.71 C61.7515468,52.4433333 61.7515468,52.1766667 61.7515468,51.91 C61.7515468,51.6433333 61.7515468,51.3833333 61.7515468,51.13 C62.0115468,51.03 62.0115468,50.95 62.0115468,50.88 Z" id="Path" fill="#FFFFFF"></path>
                <path d="M3.30154685,43.5 L8.76154685,43.5 C9.82193357,43.5 10.6815468,44.3596133 10.6815468,45.42 L10.6815468,46.21 C10.6815468,47.1654526 11.4560942,47.94 12.4115468,47.94 C13.3669995,47.94 14.1415468,47.1654526 14.1415468,46.21 L14.1415468,27.89 C8.93201609,31.7810888 5.12771907,37.2594169 3.30154685,43.5 L3.30154685,43.5 Z" id="Path" fill="#FFFFFF"></path>
                <path d="M63.4815468,40.77 C63.2433866,40.7221304 63.0720456,40.5129235 63.0720456,40.27 C63.0720456,40.0270765 63.2433866,39.8178696 63.4815468,39.77 L63.8015468,39.77 C64.0040213,39.7293031 64.2110524,39.8147342 64.3259056,39.9863758 C64.4407589,40.1580175 64.4407589,40.3819825 64.3259056,40.5536242 C64.2110524,40.7252658 64.0040213,40.8106969 63.8015468,40.77 L63.4815468,40.77 L63.4815468,40.77 Z" id="Path" fill="#1D1D1B"></path>
                <path d="M0.941546847,64.38 C0.716244314,64.384798 0.514501261,64.241158 0.445317075,64.026687 C0.376132888,63.812216 0.455910434,63.577763 0.641546847,63.45 L0.901546847,63.26 C1.13074502,63.0943146 1.4508614,63.1458019 1.61654682,63.375 C1.78223223,63.6041982 1.73074499,63.9243146 1.50154685,64.09 L1.25154685,64.27 C1.16319874,64.3398987 1.05419315,64.3785781 0.941546847,64.38 Z" id="Path" fill="#1D1D1B"></path>
                <path d="M4.27154685,33.23 L4.13154685,33.23 L3.83154685,33.15 C3.55540447,33.0726801 3.39422698,32.7861424 3.47154685,32.51 C3.54886671,32.2338576 3.83540447,32.0726801 4.11154685,32.15 L4.42154685,32.24 C4.66540162,32.3103765 4.82039637,32.5493567 4.78520658,32.8007124 C4.75001678,33.052068 4.53535288,33.239296 4.28154685,33.24 L4.27154685,33.23 Z" id="Path" fill="#1D1D1B"></path>
                <path d="M64.9415468,57.13 C64.8501743,57.1303792 64.7603779,57.1062033 64.6815468,57.06 L64.4215468,56.91 C64.2607773,56.8206836 64.1598699,56.6523823 64.1568354,56.4684936 C64.1538009,56.284605 64.2491004,56.1130659 64.4068354,56.0184936 C64.5645704,55.9239213 64.7607773,55.9206836 64.9215468,56.01 L65.2015468,56.17 C65.3801796,56.2164445 65.5204653,56.3546605 65.5695595,56.5325833 C65.6186538,56.7105061 65.5690981,56.901105 65.4395595,57.0325833 C65.310021,57.1640616 65.1201796,57.2164445 64.9415468,57.17 L64.9415468,57.13 Z" id="Path" fill="#1D1D1B"></path>
                <g id="Pin" transform="translate(12.441547, 0.000000)">
                    <path d="M22.8972398,18.4114695 C25.0916964,14.6148042 25.0932769,9.9356514 22.9013854,6.13750454 C20.7094939,2.33935769 16.6573344,-0.000402118437 12.2720969,4.09386835e-05 C7.88685947,-0.000402118437 3.83469988,2.33935769 1.64280843,6.13750454 C-0.549083024,9.9356514 -0.547502603,14.6148042 1.64695406,18.4114695 L10.7189541,34.1486124 C11.0363368,34.7009561 11.6247748,35.0414983 12.2618112,35.0414983 C12.8988476,35.0414983 13.4872856,34.7009561 13.8046683,34.1486124 L22.8972398,18.4114695 Z" id="Path" fill="#D0563F"></path>
                    <path d="M12.2720969,4.09386834e-05 C10.4469741,-0.00468314348 8.64397333,0.399498324 6.99552549,1.18289808 C5.45150166,5.85726723 4.11029347,11.3086255 6.62561291,15.5402805 C9.14093236,19.7719356 15.2658391,22.3684466 20.1098112,23.2457552 L22.8972398,18.4114695 C25.0916964,14.6148042 25.0932769,9.9356514 22.9013854,6.13750454 C20.7094939,2.33935769 16.6573344,-0.000194505289 12.2720969,4.09386834e-05 Z" id="Path" fill="#F1644A"></path>
                    <circle id="Oval" fill="#FFFFFF" cx="12.2720969" cy="12.2708981" r="6.14057143"></circle>
                </g>
            </g>
            <g id="outline" transform="translate(0.058453, 0.460000)">
                <path d="M21.1615468,57.0398566 L14.5615468,57.0398566 C16.1500163,66.1155707 21.8206814,73.9579014 29.9415468,78.31 L29.9415468,65.77 C29.9415468,63.4459709 29.0149594,61.2178502 27.3669368,59.5792127 C25.7189142,57.9405752 23.4855378,57.0266894 21.1615468,57.0398566 L21.1615468,57.0398566 Z" id="Path" stroke="#1D1D1B" stroke-linecap="round"></path>
                <path d="M55.7415468,24.33 L55.5315468,24.33 L55.5315468,26.18 C55.5315468,28.4775046 53.6690514,30.34 51.3715468,30.34 L50.4815468,30.34 C48.8246926,30.34 47.4815468,31.6831458 47.4815468,33.34 C47.4815468,34.9968542 48.8246926,36.34 50.4815468,36.34 L62.7915468,36.34 C63.7417862,36.4105819 64.4767322,37.2021429 64.4767322,38.155 C64.4767322,39.1078571 63.7417862,39.8994181 62.7915468,39.97 L49.4115468,39.97 C44.3305271,39.97 40.2115468,44.0889803 40.2115468,49.17 C40.2115468,51.6099917 41.1808298,53.9500477 42.9061645,55.6753824 C44.6314991,57.4007171 46.9715551,58.37 49.4115468,58.37 L53.7615468,58.37 C56.3020567,58.37 58.3615468,60.4294902 58.3615468,62.97 L58.3615468,66.68 C58.3653194,70.204019 60.7911275,73.2631867 64.2215468,74.07" id="Path" stroke="#1D1D1B" stroke-linecap="round"></path>
                <path d="M15.3015468,43.54 L20.7615468,43.54 C21.8219336,43.54 22.6815468,44.3996133 22.6815468,45.46 L22.6815468,46.25 C22.6815468,47.2054526 23.4560942,47.98 24.4115468,47.98 C25.3669995,47.98 26.1415468,47.2054526 26.1415468,46.25 L26.1415468,27.93 C20.9320161,31.8210888 17.1277191,37.2994169 15.3015468,43.54 L15.3015468,43.54 Z" id="Path" stroke="#1D1D1B" stroke-linecap="round"></path>
                <path d="M45.3315468,22 C60.2691048,22.6347807 72.448764,34.1919254 73.8656297,49.0756774 C75.2824955,63.9594294 65.5022168,77.6070607 50.9527322,81.0488743 C36.4032476,84.4906878 21.544813,76.6715694 16.1429073,62.730515 C10.7410016,48.7894606 16.4516205,33.0002071 29.5215468,25.74" id="Path" stroke="#1D1D1B" stroke-linecap="round"></path>
                <path d="M47.3387866,18.4514695 C49.5332433,14.6548042 49.5348237,9.9756514 47.3429322,6.17750454 C45.1510408,2.37935769 41.0988812,0.0395978816 36.7136438,0.0400409387 C32.3284063,0.0395978816 28.2762467,2.37935769 26.0843553,6.17750454 C23.8924638,9.9756514 23.8940442,14.6548042 26.0885009,18.4514695 L35.1605009,34.1886124 C35.4778837,34.7409561 36.0663216,35.0814983 36.703358,35.0814983 C37.3403945,35.0814983 37.9288324,34.7409561 38.2462152,34.1886124 L47.3387866,18.4514695 Z" id="Path" stroke="#1D1D1B" stroke-linecap="round"></path>
                <path d="M12.9415468,73.73 C12.7033866,73.6821304 12.5320456,73.4729235 12.5320456,73.23 C12.5320456,72.9870765 12.7033866,72.7778696 12.9415468,72.73 L13.5615468,72.73 C13.7605971,72.6793592 13.9706011,72.7530642 14.0943432,72.9169953 C14.2180853,73.0809263 14.2314151,73.3030893 14.1281619,73.4806401 C14.0249087,73.6581908 13.8252242,73.7564771 13.6215468,73.73 L12.9815468,73.73 L12.9415468,73.73 Z M10.1115468,73.64 L10.0515468,73.64 L9.38154685,73.54 C9.19294982,73.5166027 9.03300519,73.3902832 8.96654183,73.2122414 C8.90007846,73.0341996 8.93812194,72.8339707 9.06525246,72.6927117 C9.19238298,72.5514527 9.38751091,72.492597 9.57154685,72.54 L10.1615468,72.63 C10.3986732,72.6903278 10.5595413,72.9105596 10.5448869,73.1548004 C10.5302324,73.3990412 10.3441854,73.5984581 10.1015468,73.63 L10.1115468,73.64 Z M16.4015468,73.44 C16.1589083,73.4084581 15.9728613,73.2090412 15.9582068,72.9648004 C15.9435524,72.7205596 16.1044205,72.5003278 16.3415468,72.44 L16.9615468,72.36 C17.2153529,72.360704 17.4300168,72.547932 17.4652066,72.7992876 C17.5003964,73.0506433 17.3454016,73.2896235 17.1015468,73.36 L16.4715468,73.44 L16.4015468,73.44 Z M19.8315468,72.9 C19.5854876,72.8784483 19.3902398,72.6836673 19.3680991,72.4376603 C19.3459585,72.1916533 19.5032899,71.9651402 19.7415468,71.9 L20.3615468,71.78 C20.6284368,71.7468897 20.8751726,71.926714 20.9253724,72.1909231 C20.9755721,72.4551323 20.8119822,72.7129185 20.5515468,72.78 L19.9315468,72.9 L19.8315468,72.9 Z M7.04154685,72.2400015 C6.86096295,72.2404429 6.69360896,72.1453554 6.60154685,71.99 C6.54759529,71.8970226 6.50079364,71.8000763 6.46154685,71.7 C6.39979318,71.5455669 6.35616811,71.3844897 6.33154685,71.22 C6.27666746,71.0294645 6.33719688,70.8243916 6.48674386,70.6941947 C6.63629085,70.5639978 6.84774447,70.5322797 7.02890952,70.6128699 C7.21007456,70.69346 7.32810815,70.8717483 7.33154685,71.07 C7.34493,71.1558043 7.36842694,71.239722 7.40154685,71.32 C7.42104442,71.371702 7.44444521,71.4218466 7.47154685,71.47 C7.56507852,71.6278328 7.56662761,71.8237403 7.47560354,71.9830324 C7.38457947,72.1423245 7.21501117,72.2404506 7.03154685,72.2400015 L7.04154685,72.2400015 Z M23.2215468,72.18 C22.9727346,72.1660207 22.7704615,71.9742772 22.7432133,71.7265667 C22.7159652,71.4788562 22.8717225,71.2477293 23.1115468,71.18 L23.7215468,71.04 C23.9976892,70.9764873 24.2730341,71.1488576 24.3365468,71.425 C24.4000596,71.7011424 24.2276892,71.9764873 23.9515468,72.04 L23.3315468,72.18 L23.2215468,72.18 Z M26.5915468,71.36 C26.339539,71.3545588 26.1293067,71.1658289 26.0968114,70.9158656 C26.0643162,70.6659023 26.2193065,70.4296934 26.4615468,70.36 L27.0715468,70.2 C27.3476892,70.128203 27.6297498,70.2938576 27.7015468,70.57 C27.7733439,70.8461424 27.6076892,71.128203 27.3315468,71.2 L26.7215468,71.36 L26.5915468,71.36 Z M29.9415468,70.45 C29.6877408,70.449296 29.4730769,70.262068 29.4378871,70.0107124 C29.4026973,69.7593567 29.5576921,69.5203765 29.8015468,69.45 L30.4015468,69.28 C30.5801796,69.2281965 30.77288,69.2756275 30.9070595,69.4044263 C31.0412391,69.5332251 31.0965128,69.723824 31.0520595,69.9044263 C31.0076063,70.0850286 30.8701796,70.2281965 30.6915468,70.28 L30.0815468,70.46 L29.9415468,70.45 Z M33.2715468,69.45 C33.015777,69.4544364 32.7962914,69.2687085 32.7583446,69.0157303 C32.7203979,68.7627522 32.8757317,68.5208014 33.1215468,68.45 L33.7215468,68.26 C33.9976892,68.1743959 34.2909427,68.3288576 34.3765468,68.605 C34.462151,68.8811424 34.3076892,69.1743959 34.0315468,69.26 L33.4315468,69.45 L33.2715468,69.45 Z M7.82154685,69.05 C7.62656216,69.0519308 7.44754305,68.9425121 7.36033897,68.7681039 C7.2731349,68.5936958 7.29301137,68.3848293 7.41154685,68.23 C7.53821351,68.0633333 7.67488018,67.89 7.82154685,67.71 C8.00380081,67.4946089 8.32615579,67.467746 8.54154685,67.65 C8.7569379,67.832254 8.78380081,68.1546089 8.60154685,68.37 L8.22154685,68.84 C8.13030977,68.9722451 7.98209005,69.053766 7.82154685,69.06 L7.82154685,69.05 Z M36.5815468,68.39 C36.323606,68.4000908 36.0987992,68.2158611 36.0580158,67.960965 C36.0172324,67.7060689 36.1733345,67.4608937 36.4215468,67.39 L37.0215468,67.19 C37.2001796,67.1310512 37.396692,67.1718797 37.5370595,67.2971058 C37.6774271,67.4223319 37.7403248,67.6129309 37.7020595,67.7971058 C37.6637943,67.9812808 37.5301796,68.1310512 37.3515468,68.19 L36.7515468,68.39 L36.5815468,68.39 Z M39.8615468,67.26 C39.6011569,67.276442 39.3703481,67.0937056 39.326621,66.8364874 C39.2828939,66.5792692 39.4403514,66.3305275 39.6915468,66.26 L40.2815468,66.05 C40.5576892,65.9533502 40.859897,66.0988576 40.9565468,66.375 C41.0531967,66.6511424 40.9076892,66.9533502 40.6315468,67.05 L40.0315468,67.26 C39.9758411,67.2728374 39.9183735,67.2762179 39.8615468,67.27 L39.8615468,67.26 Z M10.2215468,66.54 C10.0052434,66.5448876 9.80939638,66.4127619 9.7329351,66.2103644 C9.65647382,66.0079669 9.71604088,65.7793515 9.88154685,65.64 L10.3715468,65.22 C10.5126668,65.1021023 10.7059646,65.068447 10.8786269,65.1317116 C11.0512892,65.1949762 11.1770845,65.3455493 11.2086269,65.5267116 C11.2401693,65.7078739 11.1726668,65.8921024 11.0315468,66.01 L10.5615468,66.41 C10.4680625,66.4936801 10.3470127,66.5399638 10.2215468,66.54 Z M43.1115468,66.05 C42.8482908,66.0738345 42.6104547,65.8925774 42.5636274,65.6324255 C42.5168,65.3722736 42.6765033,65.1194594 42.9315468,65.05 L43.5215468,64.83 C43.7976892,64.7305887 44.1021356,64.8738576 44.2015468,65.15 C44.3009581,65.4261424 44.1576892,65.7305887 43.8815468,65.83 L43.2915468,66.05 C43.2369474,66.0694018 43.1794892,66.0795415 43.1215468,66.08 L43.1115468,66.05 Z M46.3515468,64.81 C46.0846569,64.8431103 45.8379211,64.663286 45.7877213,64.3990769 C45.7375216,64.1348677 45.9011115,63.8770815 46.1615468,63.81 L46.7515468,63.58 C47.0276892,63.4750659 47.3366127,63.6138577 47.4415468,63.89 C47.5464809,64.1661424 47.4076892,64.4750659 47.1315468,64.58 L46.5415468,64.81 C46.4838384,64.8307403 46.4228625,64.8409029 46.3615468,64.84 L46.3515468,64.81 Z M49.5815468,63.54 C49.3081575,63.5891236 49.0457312,63.4104316 48.9912565,63.1380581 C48.9367818,62.8656845 49.1102938,62.5998049 49.3815468,62.54 L49.9615468,62.3 C50.131248,62.2303332 50.3252251,62.2564929 50.4704089,62.368625 C50.6155927,62.4807572 50.6899263,62.6618261 50.6654089,62.843625 C50.6408915,63.025424 50.521248,63.1803332 50.3515468,63.25 L49.7715468,63.49 C49.7120527,63.5188235 49.6475222,63.5358052 49.5815468,63.54 Z M52.7815468,62.19 C52.5081575,62.2391236 52.2457312,62.0604316 52.1912565,61.7880581 C52.1367818,61.5156845 52.3102938,61.2498049 52.5815468,61.19 L53.1615468,60.94 C53.3294617,60.8667605 53.5236942,60.888666 53.6710788,60.9974648 C53.8184634,61.1062636 53.896609,61.2854266 53.8760788,61.4674648 C53.8555486,61.649503 53.7394617,61.8067606 53.5715468,61.88 L52.9915468,62.13 C52.9267008,62.1649297 52.8550582,62.185399 52.7815468,62.19 L52.7815468,62.19 Z M55.9415468,60.78 C55.7629141,60.8175129 55.5778377,60.7568768 55.4560341,60.6209327 C55.3342306,60.4849886 55.2942049,60.2943896 55.3510341,60.1209327 C55.4078634,59.9474757 55.5529141,59.8175129 55.7315468,59.78 L56.3015468,59.52 C56.5583593,59.4012588 56.8628056,59.5131876 56.9815468,59.77 C57.1002881,60.0268124 56.9883593,60.3312588 56.7315468,60.45 L56.1515468,60.71 C56.0875159,60.7484265 56.0158275,60.7723226 55.9415468,60.78 Z M59.0915468,59.31 C58.8154045,59.3707513 58.5422982,59.1961424 58.4815469,58.92 C58.4207956,58.6438576 58.5954045,58.3707513 58.8715468,58.31 L59.4415468,58.04 C59.605889,57.9596152 59.8006322,57.9730121 59.9524186,58.0751443 C60.1042049,58.1772764 60.1899744,58.3526274 60.1774186,58.5351443 C60.1648627,58.7176612 60.055889,58.8796153 59.8915468,58.96 L59.3215468,59.23 C59.2554084,59.2733639 59.1800911,59.300752 59.1015468,59.31 L59.0915468,59.31 Z M62.2115468,57.78 C61.9354045,57.8435127 61.6600596,57.6711424 61.5965468,57.395 C61.5330341,57.1188576 61.7054045,56.8435127 61.9815468,56.78 L62.5415468,56.54 C62.7928364,56.4102131 63.1017599,56.5087105 63.2315468,56.76 C63.3613337,57.0112896 63.2628364,57.3202131 63.0115468,57.45 L62.4515468,57.74 C62.3759456,57.7725007 62.2936024,57.7862246 62.2115468,57.78 Z M65.2915468,56.18 C65.0154045,56.2462742 64.737821,56.0761424 64.6715469,55.8 C64.6052727,55.5238576 64.7754045,55.2462742 65.0515468,55.18 L65.6015468,54.88 C65.7623164,54.7924699 65.9575703,54.7973583 66.1137583,54.8928238 C66.2699463,54.9882892 66.3633398,55.1598282 66.3587583,55.3428238 C66.3541768,55.5258193 66.2523164,55.6924699 66.0915468,55.78 L65.5315468,56.08 C65.4615298,56.1335082 65.3788428,56.1679611 65.2915468,56.18 Z M68.2915468,54.5 C68.0154045,54.571797 67.7333439,54.4061424 67.6615468,54.13 C67.5897498,53.8538576 67.7554045,53.571797 68.0315468,53.5 L68.5715468,53.19 C68.8173136,53.046406 69.1329528,53.1292333 69.2765468,53.375 C69.4201408,53.6207667 69.3373135,53.936406 69.0915468,54.08 L68.5415468,54.4 C68.484382,54.463524 68.4121708,54.5116647 68.3315468,54.54 L68.2915468,54.5 Z M71.2915468,52.72 C71.0590468,52.7256458 70.852175,52.5732848 70.7885946,52.3495759 C70.7250141,52.125867 70.8208309,51.8874787 71.0215468,51.77 L71.5515468,51.44 C71.7917907,51.2881217 72.1096685,51.3597562 72.2615468,51.6 C72.4134251,51.8402439 72.3417907,52.1581217 72.1015468,52.31 L71.5615468,52.65 C71.4847048,52.6910213 71.3986367,52.7116777 71.3115468,52.71 L71.2915468,52.72 Z M74.2015468,50.8200005 C73.9781102,50.8203028 73.7804929,50.6751294 73.7139778,50.4618226 C73.6474628,50.2485158 73.7275398,50.0167495 73.9115468,49.89 L74.4215468,49.53 C74.6535064,49.367076 74.9736228,49.4230404 75.1365468,49.655 C75.2994708,49.8869596 75.2435064,50.207076 75.0115468,50.37 L74.4915468,50.73 C74.407972,50.7833124 74.3106716,50.8111125 74.2115468,50.81 L74.2015468,50.8200005 Z M76.9915468,48.750013 C76.7737723,48.7515503 76.5790417,48.6146457 76.5067964,48.409198 C76.434551,48.2037503 76.5007334,47.975096 76.6715468,47.84 L77.1515468,47.45 C77.3696993,47.2677461 77.6942929,47.2968476 77.8765468,47.515 C78.0588008,47.7331525 78.0296993,48.057746 77.8115468,48.24 L77.3115468,48.65 C77.2206837,48.7127733 77.1118991,48.7443559 77.0015468,48.74 L76.9915468,48.750013 Z M79.5515468,46.41 C79.3463168,46.4136756 79.1588841,46.2939566 79.0759242,46.1062053 C78.9929644,45.918454 79.0306472,45.6992654 79.1715468,45.55 L79.5715468,45.09 C79.7538008,44.8718475 80.0783944,44.842746 80.2965468,45.025 C80.5146993,45.207254 80.5438008,45.5318475 80.3615468,45.75 L79.9315468,46.24 C79.8354189,46.3418809 79.7016191,46.3997403 79.5615468,46.4 L79.5515468,46.41 Z M81.3015468,43.48 L81.2215468,43.48 C81.0875481,43.460244 80.9669121,43.3879955 80.8862453,43.2791891 C80.8055785,43.1703827 80.7715075,43.0339567 80.7915468,42.9 C80.7974444,42.8201087 80.7974444,42.7398913 80.7915468,42.66 C80.7979105,42.5868047 80.7979105,42.5131953 80.7915468,42.44 C80.7408545,42.2538659 80.7995258,42.0550593 80.9431565,41.9262734 C81.0867873,41.7974874 81.2907921,41.7607665 81.4703156,41.8313847 C81.6498391,41.9020029 81.7741521,42.0678723 81.7915468,42.26 C81.8025885,42.3897655 81.8025885,42.5202345 81.7915468,42.65 C81.8016624,42.7831415 81.8016624,42.9168585 81.7915468,43.05 C81.7496246,43.2851202 81.5501513,43.4596594 81.3115468,43.47 L81.3015468,43.48 Z M79.2415468,41.13 L79.1115468,41.13 L78.5415468,41 C78.3494192,40.9826053 78.1835497,40.8582923 78.1129316,40.6787688 C78.0423134,40.4992453 78.0790343,40.2952405 78.2078202,40.1516097 C78.3366062,40.0079789 78.5354128,39.9493076 78.7215468,40 L79.3815468,40.15 C79.6237872,40.2196934 79.7787775,40.4559023 79.7462822,40.7058656 C79.713787,40.9558289 79.5035547,41.1445588 79.2515468,41.15 L79.2415468,41.13 Z" id="Shape" fill="#1D1D1B" fill-rule="nonzero"></path>
                <path d="M82.709992,70.3969441 C82.4694176,70.3485893 82.2963399,70.1372618 82.2963399,69.8918759 C82.2963399,69.64649 82.4694176,69.4351625 82.709992,69.3868077 L83.3261753,69.3868077 C83.5239568,69.3317612 83.7355428,69.3994003 83.8647175,69.558967 C83.9938923,69.7185338 84.0159955,69.9395657 83.920976,70.1215518 C83.8259565,70.3035379 83.6319543,70.4117358 83.4271889,70.3969441 L82.7706002,70.3969441 L82.709992,70.3969441 Z M79.8311031,70.3969441 L79.8311031,70.3969441 L79.1846157,70.3969441 C78.978958,70.4208874 78.7789487,70.3193834 78.6768552,70.1392575 C78.5747618,69.9591316 78.5904239,69.7353873 78.7166164,69.5712415 C78.8428088,69.4070956 79.0550088,69.3344462 79.2553253,69.3868077 L79.8816099,69.3868077 C80.1221843,69.4351625 80.295262,69.64649 80.295262,69.8918759 C80.295262,70.1372618 80.1221843,70.3485893 79.8816099,70.3969441 L79.8311031,70.3969441 Z M76.3259295,70.0635991 L76.2653213,70.0635991 L75.6289354,69.9322813 C75.3826088,69.8611915 75.2260429,69.6197889 75.2615894,69.3658853 C75.2971359,69.1119818 75.5139757,68.922856 75.7703545,68.9221449 L76.3966391,69.0029558 C76.636169,69.0638951 76.7986678,69.2863592 76.7838648,69.5330758 C76.7690618,69.7797924 76.5811289,69.9812307 76.3360309,70.0130923 L76.3259295,70.0635991 Z M86.144456,69.7100513 C85.8655145,69.7714185 85.5896399,69.5950396 85.5282728,69.3160981 C85.4669056,69.0371566 85.6432845,68.761282 85.922226,68.6999149 C86.0879094,68.6225933 86.2467337,68.5313538 86.3969901,68.427178 C86.631301,68.2626025 86.9546622,68.3191342 87.1192377,68.5534451 C87.2838132,68.7877559 87.2272815,69.1111172 86.9929706,69.2756926 C86.7917296,69.4150403 86.5788066,69.5367106 86.3565847,69.6393418 C86.2910813,69.6746255 86.2187125,69.6953023 86.144456,69.69995 L86.144456,69.7100513 Z M72.8510601,69.5181254 L72.7601478,69.5181254 L72.1237618,69.4070104 C71.9332531,69.3833759 71.7716872,69.255776 71.7045501,69.0759295 C71.637413,68.8960829 71.6758422,68.6938244 71.8042613,68.5511336 C71.9326805,68.4084427 72.1297863,68.3489904 72.3156878,68.3968739 L72.9419724,68.5079889 C73.1826444,68.5737894 73.3415706,68.8025986 73.3192055,69.0510992 C73.2968404,69.2995998 73.0996135,69.4963552 72.8510601,69.5181254 L72.8510601,69.5181254 Z M69.3963934,68.8211312 L69.2852783,68.8211312 L68.6589937,68.6797121 C68.3800523,68.618345 68.2036735,68.3424704 68.2650406,68.0635289 C68.3264077,67.7845874 68.6022823,67.6082086 68.8812238,67.6695757 L69.5075084,67.8109948 C69.7497636,67.8794106 69.9070998,68.1128803 69.8795755,68.3631017 C69.8520511,68.6133231 69.6477277,68.8070103 69.3963934,68.8211312 L69.3963934,68.8211312 Z M65.9619294,68.0231234 L65.840713,68.0231234 L65.2144284,67.871603 C65.0339849,67.8264921 64.8913145,67.6885425 64.8401599,67.5097184 C64.7890054,67.3308943 64.8371381,67.1383633 64.966427,67.0046501 C65.0957159,66.8709369 65.286519,66.8163556 65.4669625,66.8614665 L66.0831457,67.012987 C66.326499,67.0824845 66.4833314,67.3184524 66.4531778,67.569732 C66.4230243,67.8210117 66.2148162,68.0131747 65.9619294,68.0231234 L65.9619294,68.0231234 Z M62.5577695,67.1342033 L62.4264517,67.1342033 L61.8001671,66.9018719 C61.6197236,66.8531522 61.4789786,66.7118678 61.4309494,66.5312393 C61.3829201,66.3506108 61.4349035,66.1580798 61.5673178,66.026171 C61.6997321,65.8942623 61.8924604,65.8430157 62.072904,65.8917355 L62.6890872,66.0634587 C62.9337831,66.1338586 63.0903443,66.3724618 63.0575197,66.6249588 C63.0246951,66.8774558 62.8123318,67.0680988 62.5577695,67.0735951 L62.5577695,67.1342033 Z M87.4879375,66.8513651 C87.2635583,66.8538895 87.0633544,66.7108867 86.9929706,66.4978174 C86.9314266,66.3209549 86.8571557,66.1487815 86.7707406,65.9826478 C86.6877366,65.8166397 86.6996019,65.6189599 86.8018671,65.4640723 C86.9041323,65.3091847 87.0812607,65.2206204 87.2665299,65.2317409 C87.4517991,65.2428613 87.6170622,65.3519769 87.7000662,65.517985 C87.806696,65.7299832 87.8978462,65.949419 87.972803,66.1745737 C88.017226,66.3058136 88.006912,66.4494152 87.9441895,66.5729595 C87.881467,66.6965039 87.7716239,66.7895753 87.639458,66.8311624 L87.4879375,66.8513651 Z M59.2041164,66.1745737 L59.0525959,66.1745737 L58.4364127,65.9927491 C58.2559692,65.9404205 58.1171495,65.7958014 58.0722456,65.6133684 C58.0273418,65.4309355 58.0831757,65.2384045 58.2187154,65.1083002 C58.3542551,64.9781958 58.5489087,64.930284 58.7293522,64.9826126 L59.3455355,65.1644372 C59.5918621,65.2355271 59.7484279,65.4769297 59.7128814,65.7308332 C59.677335,65.9847368 59.4604951,66.1738626 59.2041164,66.1745737 L59.2041164,66.1745737 Z M55.8403619,65.1644372 L55.6787401,65.1644372 L55.0524555,64.881599 C54.773514,64.7951271 54.6174866,64.4989011 54.7039584,64.2199596 C54.7904303,63.9410181 55.0866563,63.7849907 55.3655978,63.8714625 L55.9716797,64.0633885 C56.2224081,64.1350008 56.3800924,64.3826612 56.3388957,64.640141 C56.2976989,64.8976208 56.0706133,65.0837181 55.8100578,65.0735249 L55.8403619,65.1644372 Z M85.5686782,63.9724762 C85.4236828,63.9750298 85.284326,63.9163533 85.1848264,63.8108543 L84.7504677,63.3562929 C84.5496298,63.1526657 84.5518911,62.8247819 84.7555184,62.623944 C84.9591456,62.4231061 85.2870294,62.4253674 85.4878673,62.6289947 L85.9424287,63.1037588 C86.0847566,63.2545373 86.1228214,63.4759477 86.0390206,63.6656021 C85.9552198,63.8552565 85.7658872,63.976189 85.5585769,63.9724762 L85.5686782,63.9724762 Z M45.8097068,61.7198719 C45.749578,61.730652 45.6880111,61.730652 45.6278822,61.7198719 L45.0218004,61.4976418 C44.7428589,61.3972229 44.5981378,61.0896905 44.6985567,60.810749 C44.7989756,60.5318075 45.106508,60.3870864 45.3854495,60.4875054 L45.98143,60.7097354 C46.2390588,60.7798989 46.4003809,61.0352757 46.3530789,61.2980646 C46.3057769,61.5608536 46.06553,61.743948 45.7996054,61.7198719 L45.8097068,61.7198719 Z M82.9726275,61.5380492 C82.8506671,61.5383735 82.7325462,61.4954205 82.6392825,61.4168309 L82.154417,61.0127763 C82.0118666,60.8936836 81.9436798,60.7075877 81.975542,60.5245891 C82.0074041,60.3415905 82.1344745,60.1894911 82.308887,60.1255852 C82.4832995,60.0616793 82.6785567,60.0956758 82.821107,60.2147685 L83.3160739,60.6289245 C83.481736,60.768518 83.5423692,60.9968366 83.4677919,61.2002291 C83.3932147,61.4036216 83.1993621,61.5386287 82.9827289,61.5380492 L82.9726275,61.5380492 Z M42.5267633,60.4673026 C42.4666159,60.4778723 42.4050861,60.4778723 42.3449387,60.4673026 L41.7489582,60.2349712 C41.4700167,60.1317629 41.3275569,59.8219692 41.4307652,59.5430278 C41.5339736,59.2640863 41.8437672,59.1216264 42.1227087,59.2248348 L42.7186892,59.4571662 C42.976318,59.5273296 43.1376401,59.7827065 43.0903381,60.0454954 C43.0430361,60.3082844 42.8027892,60.4913787 42.5368646,60.4673026 L42.5267633,60.4673026 Z M80.2250563,59.3460512 C80.1170074,59.3482831 80.0109927,59.3164787 79.9220154,59.2551389 L79.4068458,58.8914897 C79.1697455,58.7297037 79.1086913,58.4063424 79.2704773,58.1692422 C79.4322634,57.9321419 79.7556247,57.8710877 79.9927249,58.0328737 L80.5280972,58.4066242 C80.7156154,58.5356823 80.7962016,58.7725119 80.7263161,58.9891568 C80.6564306,59.2058018 80.4526426,59.3508978 80.2250563,59.3460512 L80.2250563,59.3460512 Z M39.2539211,59.174328 C39.1905106,59.1863501 39.1254057,59.1863501 39.0619952,59.174328 L38.4660147,58.9318952 C38.2855712,58.8615222 38.156378,58.7002295 38.127101,58.5087743 C38.097824,58.3173192 38.1729111,58.1247882 38.3240776,58.0037061 C38.4752442,57.8826239 38.6795244,57.8513857 38.8599679,57.9217587 L39.4559484,58.1641915 C39.7190237,58.231953 39.8842718,58.4923521 39.8335632,58.7592395 C39.7828546,59.0261268 39.5336177,59.2077738 39.2640225,59.174328 L39.2539211,59.174328 Z M35.9911803,57.8106437 C35.9244979,57.8239775 35.8558354,57.8239775 35.789153,57.8106437 L35.1931725,57.5581096 C34.9309675,57.446533 34.8088591,57.1435232 34.9204357,56.8813182 C35.0320123,56.6191132 35.3350221,56.4970047 35.5972271,56.6085813 L36.1831063,56.8611154 C36.4571089,56.9215265 36.6323797,57.1901012 36.5773528,57.4652357 C36.5223259,57.7403702 36.2572395,57.9208734 35.981079,57.8712519 L35.9911803,57.8106437 Z M32.7587436,56.4166554 C32.6887997,56.4313709 32.6165589,56.4313709 32.546615,56.4166554 L31.9607358,56.1540199 C31.6985308,56.0368645 31.5809449,55.7293321 31.6981003,55.4671271 C31.8152558,55.2049221 32.1227881,55.0873362 32.3849931,55.2044916 L32.9708723,55.4671271 C33.2498137,55.5257049 33.4284538,55.7993182 33.3698761,56.0782597 C33.3112984,56.3572011 33.0376851,56.5358413 32.7587436,56.4772636 L32.7587436,56.4166554 Z M29.334381,54.9216534 L28.7889073,54.6792207 C28.5294917,54.5592758 28.4164283,54.2517434 28.5363732,53.9923279 C28.656318,53.7329123 28.9638504,53.6198489 29.223266,53.7397938 L29.778841,53.9923279 L29.5869151,54.4771934 L29.334381,54.9216534 Z M26.1423498,53.4165501 L25.566572,53.1337119 C25.4005639,53.0525123 25.2904857,52.8889166 25.2778026,52.7045496 C25.2651194,52.5201827 25.3517584,52.3430542 25.5050833,52.2398868 C25.6584082,52.1367195 25.8551254,52.1231867 26.0211334,52.2043863 L26.5767084,52.4771232 L26.3645798,52.9518873 L26.1423498,53.4165501 Z M23.2028526,51.9114467 C23.1225301,51.9129566 23.0429676,51.8956604 22.9705212,51.8609399 L22.3947435,51.5680003 C22.2255057,51.4878936 22.113056,51.3222707 22.1010412,51.1354174 C22.0890264,50.9485641 22.1793383,50.7699035 22.3369229,50.6687818 C22.4945075,50.5676601 22.6945506,50.5600005 22.8594062,50.6487762 L23.4250827,50.9316144 C23.7040241,50.9957709 23.8781417,51.2739068 23.8139852,51.5528483 C23.7498287,51.8317898 23.4716928,52.0059074 23.1927513,51.9417508 L23.2028526,51.9114467 Z M20.0714296,50.2952284 C19.9868692,50.2952284 19.9036089,50.2744133 19.8289968,50.2346202 L19.2633204,49.9315793 C19.0122731,49.7976873 18.9172998,49.4856324 19.0511918,49.2345851 C19.1850837,48.9835378 19.4971386,48.8885645 19.7481859,49.0224564 L20.3138623,49.3254974 C20.5928038,49.3924433 20.7646601,49.6728405 20.6977142,49.951782 C20.6307682,50.2307235 20.3503711,50.4025798 20.0714296,50.3356339 L20.0714296,50.2952284 Z M16.9703106,48.6487059 C16.8814424,48.6473148 16.7944456,48.6229557 16.7177765,48.5779964 L16.1622014,48.2648541 C15.9139435,48.1253833 15.8257541,47.8110672 15.9652249,47.5628093 C16.1046956,47.3145513 16.4190118,47.2263619 16.6672697,47.3658326 L17.2228447,47.6789749 C17.4032882,47.7240858 17.5459585,47.8620354 17.5971131,48.0408595 C17.6482677,48.2196836 17.600135,48.4122146 17.4708461,48.5459278 C17.3415572,48.679641 17.1507541,48.7342223 16.9703106,48.6891114 L16.9703106,48.6487059 Z M13.9399012,46.8910685 C13.8476025,46.8914515 13.7568959,46.8670305 13.6772657,46.8203589 L13.1216907,46.4870139 C12.9629004,46.3913788 12.8671928,46.2182948 12.8706201,46.0329609 C12.8740473,45.8476269 12.9760887,45.6781997 13.1383062,45.5885008 C13.3005238,45.4988019 13.4982727,45.5024588 13.657063,45.5980938 L14.2025367,45.9213375 C14.4814782,45.9938623 14.648812,46.278782 14.5762872,46.5577235 C14.5037624,46.8366649 14.2188427,47.0039987 13.9399012,46.931474 L13.9399012,46.8910685 Z M10.9094918,45.0324174 C10.8093622,45.0335412 10.7110756,45.0054593 10.6266536,44.9516065 L10.0912813,44.5980587 C9.93609985,44.4970103 9.84661498,44.3208495 9.85653472,44.1359343 C9.86645446,43.9510191 9.97427178,43.7854425 10.1393729,43.7015756 C10.3044741,43.6177087 10.5017763,43.628293 10.6569577,43.7293413 L11.19233,44.0727877 C11.386313,44.1964645 11.4747834,44.4337674 11.409108,44.6542489 C11.3434327,44.8747304 11.1395319,45.0249441 10.9094918,45.022316 L10.9094918,45.0324174 Z M7.99019741,43.0121445 C7.88103254,43.0114317 7.774916,42.9760595 7.68715647,42.9111308 L7.1618855,42.5373803 C6.93036409,42.3700154 6.87835494,42.0466542 7.04571983,41.8151327 C7.21308471,41.5836113 7.53644595,41.5316022 7.76796739,41.698967 L8.28313699,42.0727175 C8.4706551,42.2017756 8.5512413,42.4386052 8.48135583,42.6552501 C8.41147037,42.8718951 8.20768235,43.0169911 7.98009604,43.0121445 L7.99019741,43.0121445 Z M5.21232212,40.921162 C5.09036174,40.9214882 4.9722408,40.8785351 4.87897709,40.7999456 L4.38401022,40.3857896 C4.22716334,40.1894074 4.23491575,39.908509 4.40235537,39.7210766 C4.56979499,39.5336442 4.84804509,39.4943905 5.06080165,39.6281873 L5.54566715,40.0322419 C5.71981911,40.1698216 5.78628503,40.4034708 5.71062292,40.6121148 C5.63496081,40.8207588 5.43417959,40.9574942 5.21232212,40.9514661 L5.21232212,40.921162 Z M2.62637276,38.5271385 C2.48137729,38.5296922 2.34202054,38.4710156 2.2425209,38.3655167 L1.79806085,37.8705498 C1.6771637,37.7298039 1.64053719,37.5352514 1.70197817,37.3601785 C1.76341914,37.1851055 1.91359327,37.0561098 2.0959314,37.0217827 C2.27826952,36.9874557 2.46507016,37.0530125 2.5859673,37.1937584 L3.00012325,37.6584212 C3.14245113,37.8091996 3.18051592,38.03061 3.09671513,38.2202645 C3.01291434,38.4099189 2.82358176,38.5308514 2.61627139,38.5271385 L2.62637276,38.5271385 Z M0.686910739,35.5876414 C0.466249497,35.5857991 0.271267013,35.4436244 0.202045234,35.2340936 C0.121785856,35.0211535 0.0609302766,34.8013973 0.0202206696,34.5775049 C-0.0356725396,34.3838348 0.0265223339,34.1753573 0.179390603,34.0439668 C0.332258872,33.9125762 0.547714635,33.8824124 0.730787809,33.9667712 C0.913860982,34.0511299 1.03091623,34.2345123 1.03035714,34.4360858 C1.05743595,34.6116375 1.10141284,34.7841622 1.16167488,34.9512554 C1.20652798,35.0811686 1.19761083,35.2236184 1.13690661,35.3469238 C1.07620238,35.4702293 0.968744339,35.5641666 0.838431209,35.6078441 L0.686910739,35.5876414 Z M1.86877041,32.6481443 C1.68832691,32.6932552 1.49752387,32.6386739 1.36823496,32.5049606 C1.23894604,32.3712474 1.19081331,32.1787165 1.2419679,31.9998924 C1.29312248,31.8210683 1.43579279,31.6831187 1.61623629,31.6380078 C1.82197903,31.5270466 2.0345317,31.4292049 2.25262227,31.3450682 C2.53156374,31.2418599 2.84135738,31.3843198 2.94456572,31.6632612 C3.04777407,31.9422027 2.90531423,32.2519963 2.62637276,32.3552047 C2.44631245,32.4247805 2.27086691,32.5057554 2.1011018,32.5976375 C2.03227634,32.6465192 1.95249313,32.6777388 1.86877041,32.6885497 L1.86877041,32.6481443 Z M12.8893593,32.4562184 L12.7782443,32.4562184 L12.162061,32.335002 C11.8989858,32.2672405 11.7337376,32.0068413 11.7844462,31.739954 C11.8351548,31.4730666 12.0843917,31.2914196 12.353987,31.3248655 L13.0004743,31.4561832 C13.2427296,31.5245991 13.4000658,31.7580688 13.3725414,32.0082902 C13.3450171,32.2585116 13.1406936,32.4521988 12.8893593,32.4663197 L12.8893593,32.4562184 Z M9.41448983,31.9511501 L9.36398301,31.9511501 L8.7376984,31.8905419 C8.49702632,31.8247415 8.3381002,31.5959323 8.36046525,31.3474317 C8.38283031,31.098931 8.58005725,30.9021756 8.82861068,30.8804055 L9.47509802,30.9410136 C9.71452131,31.0001119 9.87848291,31.2205965 9.86616784,31.466898 C9.85385276,31.7131996 9.66871545,31.9162292 9.4245912,31.9511501 L9.41448983,31.9511501 Z M5.26282894,31.8501365 C5.02225457,31.8017816 4.8491768,31.5904541 4.8491768,31.3450682 C4.8491768,31.0996824 5.02225457,30.8883549 5.26282894,30.84 L5.91941765,30.84 C6.15999202,30.8883549 6.33306979,31.0996824 6.33306979,31.3450682 C6.33306979,31.5904541 6.15999202,31.8017816 5.91941765,31.8501365 L5.3032344,31.8501365 L5.26282894,31.8501365 Z" id="Shape" fill="#1D1D1B" fill-rule="nonzero"></path>
                <circle id="Oval" stroke="#1D1D1B" fill="#FFFFFF" fill-rule="nonzero" stroke-linecap="round" cx="48.8315468" cy="26.31" r="1.66"></circle>
                <circle id="Oval" stroke="#1D1D1B" stroke-linecap="round" fill-rule="nonzero" cx="36.7136438" cy="12.3108981" r="6.14057143"></circle>
            </g>
            <g id="Spark" fill-rule="nonzero">
                <circle id="Oval" fill="#D0563F" cx="87" cy="1" r="1"></circle>
                <circle id="Oval" fill="#FF9682" cx="7.69" cy="61.02" r="2"></circle>
                <circle id="Oval" fill="#FF9682" cx="59" cy="79" r="2"></circle>
                <circle id="Oval" fill="#D0563F" cx="84" cy="85" r="1"></circle>
                <circle id="Oval" fill="#FF9682" cx="3" cy="85" r="3"></circle>
                <circle id="Oval" fill="#FF9682" cx="78" cy="22" r="3"></circle>
                <circle id="Oval" fill="#D0563F" cx="9.55" cy="11.86" r="1"></circle>
            </g>
        </g>
    </g>
</svg>